<svg xmlns="http://www.w3.org/2000/svg" viewBox="0 0 276.4 193.5" role="img" aria-label="one-line motion illustration"><path d="M248.4 190.0C247.9 188.7 247.0 185.7 246.3 183.3C244.9 177.8 242.5 173.6 233.0 160.1C228.9 154.2 224.3 146.3 222.8 142.4C219.4 133.5 219.3 133.4 192.7 120.3C168.6 108.4 162.2 103.9 160.2 97.4C158.2 90.5 159.7 86.7 167.4 79.3L174.3 72.7L174.3 64.1C174.3 59.4 174.8 52.1 175.4 47.9C176.7 38.7 176.9 39.1 169.0 38.6C158.1 37.9 155.4 40.2 149.6 55.4C143.9 70.0 143.6 72.5 146.4 77.8C148.3 81.4 148.5 82.5 147.5 83.7C146.0 85.5 142.3 86.6 142.3 85.2C142.3 84.6 143.2 84.0 144.3 83.7C146.7 83.1 146.9 80.5 144.9 77.8C144.1 76.8 143.4 74.6 143.4 73.1C143.3 69.0 149.2 35.5 150.3 33.6C151.1 32.1 153.4 31.9 170.0 31.9C187.5 31.9 189.1 31.7 193.0 29.7C197.8 27.1 198.7 25.4 197.2 21.6C192.2 8.5 203.6 0.0 215.6 7.9C220.1 10.9 220.4 14.0 217.4 24.7C215.0 33.5 214.2 34.4 210.2 32.1C205.0 29.1 204.3 30.7 204.6 45.2L204.9 57.9L211.8 63.6C215.6 66.8 219.2 69.4 219.9 69.4C222.8 69.4 225.7 58.4 226.0 46.5C226.3 32.8 226.3 32.7 230.8 31.8C233.8 31.3 234.6 31.5 236.2 33.5C238.3 36.1 238.0 37.1 232.9 44.1C231.7 45.8 229.2 51.4 227.4 56.6C221.8 72.8 221.2 73.1 210.7 64.3C206.6 61.0 203.3 58.6 203.3 59.1C203.3 59.6 199.8 66.4 195.4 74.3C191.0 82.1 187.2 89.3 186.9 90.3C186.1 92.7 187.3 93.5 206.8 105.1C228.3 117.8 227.9 117.4 228.7 129.4C229.4 140.6 231.7 148.1 239.8 165.0C243.0 171.5 246.6 180.0 247.8 183.8C250.4 192.1 251.4 192.7 255.6 188.1C257.4 186.2 261.0 183.5 263.7 182.2L268.6 179.7L259.7 180.0L250.8 180.3L258.8 179.4C263.2 178.9 268.1 178.1 269.7 177.5C276.4 174.9 274.3 178.6 267.1 182.0C263.7 183.6 259.2 186.6 257.1 188.6C252.8 193.0 249.7 193.5 248.4 190.0ZM236.4 160.9C235.8 159.6 234.5 156.7 233.4 154.5C229.9 147.7 227.3 136.4 227.3 128.2C227.3 118.7 227.2 118.5 208.6 107.7C186.4 94.6 185.8 94.2 186.0 90.8C186.1 89.2 189.8 81.4 194.3 73.4C203.3 57.1 203.8 55.5 203.1 43.6C202.3 31.0 204.5 27.3 210.5 30.8C213.3 32.5 213.4 32.5 214.3 30.0C216.6 23.8 218.4 16.2 218.2 13.7C217.6 8.5 208.1 4.6 201.9 7.0C198.1 8.4 196.3 15.9 198.5 20.8C202.7 30.1 188.8 35.3 165.2 33.2C157.2 32.4 152.9 32.4 152.2 33.1C151.1 34.2 147.1 53.0 147.6 54.6C147.8 55.1 149.0 52.9 150.3 49.7C154.6 39.1 159.6 36.0 170.2 37.3C177.3 38.1 178.5 39.3 177.2 43.8C176.7 45.5 176.3 52.0 176.3 58.2C176.3 71.7 175.4 74.5 168.7 79.9C162.9 84.6 162.6 84.9 161.4 89.4C158.5 99.6 163.9 104.5 194.7 119.8C220.4 132.5 220.3 132.4 223.9 141.4C226.0 146.8 235.8 163.4 236.9 163.4C237.1 163.4 236.9 162.3 236.4 160.9ZM127.0 147.8C118.1 145.6 71.2 122.2 72.7 120.7C73.0 120.4 78.5 123.1 85.0 126.7C111.0 140.9 125.9 147.4 132.8 147.4C138.4 147.4 165.0 127.4 170.9 118.8C174.6 113.5 176.7 112.0 174.3 116.5C171.0 122.6 158.9 133.2 142.0 144.7C134.5 149.9 135.1 149.8 127.0 147.8ZM116.4 133.8C106.3 128.2 102.7 126.9 90.5 124.3C85.4 123.2 79.1 121.4 76.7 120.3C71.6 118.1 71.0 118.0 71.8 119.3C72.5 120.5 66.6 121.3 53.8 121.6C41.6 121.9 40.6 120.5 50.1 115.9C53.5 114.2 56.3 112.6 56.3 112.3C56.3 111.2 43.2 105.7 32.6 102.3C27.0 100.5 22.6 98.8 22.8 98.6C23.0 98.4 25.5 98.9 28.3 99.9C37.7 103.0 34.7 100.7 24.2 96.6C13.9 92.7 7.1 90.7 2.3 90.1C0.0 89.9 0.0 89.8 1.9 89.2C5.0 88.4 22.8 94.5 38.3 101.8C64.2 114.1 81.4 120.9 92.8 123.4C101.5 125.3 106.3 127.1 115.2 131.7C121.5 134.9 127.1 137.3 127.8 137.0C128.5 136.8 132.4 132.6 136.5 127.7C146.0 116.3 158.5 103.2 159.2 103.9C159.5 104.2 157.0 107.2 153.6 110.7C150.2 114.1 143.4 121.6 138.6 127.4C128.0 140.0 127.8 140.0 116.4 133.8ZM59.1 119.8L68.4 119.1L64.3 116.7C59.1 113.8 57.1 113.8 50.6 116.8C45.3 119.3 43.3 122.1 47.6 121.0C48.8 120.7 54.0 120.2 59.1 119.8ZM234.2 40.0C235.4 38.9 236.3 37.4 236.3 36.5C236.3 35.3 236.1 35.3 235.1 36.2C233.4 38.0 229.6 37.6 228.4 35.6C227.1 33.5 227.0 36.6 228.0 43.9L228.6 48.7L230.4 45.3C231.3 43.4 233.1 41.0 234.2 40.0Z" fill="#14544e" fill-rule="evenodd"/></svg>