<svg xmlns="http://www.w3.org/2000/svg" viewBox="0 0 66.5 298.7" role="img" aria-label="one-line motion illustration"><path d="M25.1 288.8C20.1 283.2 15.1 276.7 14.0 274.5C5.7 257.4 12.0 234.6 33.7 202.2C38.3 195.5 42.0 189.1 42.0 187.9C42.0 182.8 36.5 174.5 24.9 162.3C6.9 143.4 3.8 136.3 1.4 109.0C0.0 93.8 9.2 74.9 29.6 51.0C38.5 40.6 53.2 27.0 60.6 22.3C64.9 19.6 64.9 19.4 65.0 14.0C65.0 10.3 64.3 7.1 63.0 4.5C60.7 0.0 60.7 0.0 61.9 0.0C64.0 0.0 66.5 8.6 66.4 15.5C66.3 27.7 60.3 37.6 42.0 55.5C18.1 78.9 9.4 91.0 5.5 106.5C3.5 114.5 3.6 118.5 6.2 128.7C9.2 140.6 12.4 144.2 22.9 147.2C37.7 151.5 47.4 165.9 45.6 180.9C45.2 184.0 44.8 190.3 44.7 195.0C44.4 205.6 42.9 208.6 32.2 220.3C19.2 234.6 13.3 250.4 15.7 264.7C17.3 273.9 20.1 278.7 33.0 294.2C34.7 296.2 35.7 298.1 35.2 298.4C34.7 298.7 30.2 294.4 25.1 288.8ZM17.2 274.9C13.2 267.0 12.9 254.7 16.3 243.8C19.5 233.7 22.8 228.4 32.1 218.3C40.7 209.1 43.2 204.0 42.8 197.0L42.5 192.0L36.5 200.5C28.3 212.1 19.7 227.7 15.9 237.9C10.3 253.0 11.3 270.0 18.3 278.8C20.0 280.9 19.8 280.1 17.2 274.9ZM43.8 176.8C43.0 161.7 34.5 150.9 21.7 148.5C19.6 148.1 16.4 146.7 14.4 145.4L10.9 143.0L12.7 146.1C13.7 147.9 19.7 154.8 26.1 161.5C33.8 169.6 38.7 175.6 40.5 179.3C42.0 182.5 43.5 185.0 43.8 185.0C44.0 185.0 44.1 181.3 43.8 176.8ZM6.1 99.6C10.5 87.3 22.7 71.4 39.0 56.9C51.1 46.2 66.3 24.9 63.7 22.4C62.7 21.4 52.6 29.3 42.7 38.9C26.7 54.3 11.4 75.2 6.0 88.9C3.7 94.8 1.9 106.5 2.9 109.0C3.3 110.0 3.6 109.7 3.8 108.0C3.9 106.6 5.0 102.9 6.1 99.6Z" fill="#14544e" fill-rule="evenodd"/></svg>