<svg xmlns="http://www.w3.org/2000/svg" viewBox="0 0 293.2 237.2" role="img" aria-label="one-line motion illustration"><path d="M6.8 236.3C0.5 235.8 0.0 234.1 5.3 230.9C7.4 229.6 11.4 226.6 14.2 224.1C17.0 221.6 27.8 213.7 38.2 206.5C74.3 181.6 110.0 153.6 125.6 137.8C137.9 125.5 144.6 111.9 144.6 99.3C144.6 91.7 142.6 90.0 133.8 90.0C125.1 89.9 123.5 88.7 119.2 78.3C112.1 61.0 108.5 59.1 91.5 63.0C79.1 65.9 70.3 55.0 75.0 42.5C77.2 37.0 81.5 33.2 86.8 32.3C92.1 31.5 91.2 30.8 75.1 23.1C68.5 19.9 59.3 15.0 54.7 12.2C42.4 4.6 41.8 4.9 37.1 20.8C36.8 22.0 35.6 23.4 34.6 24.0C33.6 24.5 32.5 26.5 32.2 28.4C31.8 30.3 30.8 32.0 29.8 32.4C28.9 32.7 27.6 33.2 27.0 33.5C25.1 34.4 24.7 22.2 26.4 17.0C29.5 7.8 37.0 0.0 42.9 0.0C65.2 0.0 109.7 18.0 124.3 32.8C128.6 37.2 134.2 41.2 142.8 46.2C158.3 55.2 163.6 59.1 171.3 67.3C186.3 83.4 193.0 98.8 194.3 119.8C195.1 132.8 194.5 132.4 215.0 135.0C257.5 140.4 255.9 138.8 256.6 176.8C257.2 210.2 257.9 212.7 268.2 219.7C275.3 224.5 285.0 229.6 288.9 230.6C292.5 231.4 293.2 232.8 291.2 234.8C288.8 237.2 277.5 236.8 270.8 234.1C266.7 232.5 263.4 232.0 256.2 232.0C244.3 232.0 244.2 231.9 243.9 218.6C243.6 203.9 239.0 182.1 234.2 173.5C229.9 165.7 229.8 164.8 233.2 162.1C237.3 158.9 238.5 159.6 234.6 162.9L231.1 165.8L232.9 168.7C239.8 179.5 246.6 209.2 245.1 222.6C244.3 230.5 245.1 231.0 257.5 231.0C264.2 231.0 267.9 231.5 271.6 233.0C277.0 235.1 287.9 235.7 290.6 234.0C291.8 233.3 291.7 233.0 290.1 232.4C281.0 229.2 267.4 221.6 263.1 217.2C256.7 211.0 256.2 208.2 255.6 178.0C255.0 147.5 254.7 146.1 248.6 143.0C243.3 140.3 226.6 137.2 208.6 135.5C188.0 133.6 187.3 132.9 186.5 113.2C185.7 94.9 183.6 88.1 175.0 74.8C167.9 63.7 158.8 56.2 140.1 46.0C135.3 43.4 128.9 38.5 124.1 34.0C109.5 20.3 80.2 7.2 54.4 2.9C40.0 0.5 38.5 0.8 33.1 7.4C29.0 12.5 25.7 24.6 27.6 27.9C28.4 29.2 28.5 29.1 28.6 27.0C28.7 21.2 37.3 7.8 42.0 6.1C49.9 3.1 81.7 14.5 99.7 26.8C110.6 34.2 131.3 56.8 128.7 58.5C126.9 59.5 120.7 56.2 115.6 51.4L110.6 46.7L105.2 52.6C99.2 59.2 99.1 60.0 104.3 60.0C109.7 60.0 116.4 67.3 120.1 77.1C123.8 87.3 125.9 89.0 134.5 89.0C145.0 89.0 147.8 93.4 145.2 105.9C141.4 123.8 125.2 149.3 103.3 171.8C96.7 178.5 91.5 184.0 91.8 184.0C93.4 184.0 107.3 177.0 115.6 172.0C130.2 163.2 131.1 162.8 140.0 162.4C144.5 162.1 150.0 161.8 152.3 161.6C154.7 161.4 156.3 161.6 156.0 162.1C155.7 162.6 151.6 163.0 146.8 163.0C135.1 163.0 129.4 164.6 120.0 170.7C109.8 177.2 91.8 186.2 90.5 185.5C90.0 185.1 89.7 185.2 89.8 185.7C90.2 187.0 72.5 203.4 67.6 206.3C65.1 207.7 57.8 211.1 51.2 213.9C38.8 219.2 37.1 220.5 36.1 225.7C35.5 229.2 33.2 231.0 29.5 231.0C28.2 231.0 26.2 231.9 25.0 233.1C22.9 235.1 16.7 237.1 13.6 236.8C12.8 236.7 9.7 236.5 6.8 236.3ZM24.0 231.8C26.4 229.4 28.2 228.5 30.6 228.5C33.6 228.5 34.0 228.1 35.3 224.5C37.1 219.1 38.8 217.7 47.6 214.0C70.8 204.3 112.7 165.2 128.6 138.5C130.7 135.0 130.0 135.5 122.5 142.5C105.4 158.5 70.6 185.6 36.6 209.0C27.5 215.3 18.1 222.3 15.6 224.6C13.1 226.9 9.2 229.9 6.8 231.4C4.5 232.8 2.6 234.2 2.6 234.5C2.6 234.8 6.7 235.0 11.7 235.0C20.6 235.0 20.9 234.9 24.0 231.8ZM244.4 187.0C244.8 181.2 245.1 169.9 245.1 161.8C245.1 152.6 245.4 147.7 246.0 148.7C247.1 150.6 246.0 186.3 244.6 193.0C244.0 196.0 244.0 194.0 244.4 187.0ZM193.9 126.3C192.8 109.1 189.5 95.9 183.9 86.3C180.7 80.8 180.2 80.8 182.6 86.3C186.1 94.2 187.7 102.4 188.1 114.0C188.3 120.3 188.5 126.0 188.5 126.7C188.6 128.0 192.5 132.0 193.6 132.0C194.0 132.0 194.1 129.4 193.9 126.3ZM95.1 60.9C96.8 60.2 96.7 60.1 94.3 60.1C91.6 60.0 90.5 57.8 92.6 56.5C93.1 56.2 93.6 56.6 93.6 57.4C93.6 61.0 98.1 58.9 103.3 52.9C106.2 49.6 108.6 46.5 108.6 46.0C108.6 44.2 95.1 34.7 91.4 33.8C78.6 31.0 69.2 49.5 78.7 58.9C82.5 62.8 88.5 63.5 95.1 60.9ZM120.6 48.0C110.1 34.7 101.1 27.7 83.9 19.1C74.2 14.3 59.4 8.8 52.6 7.5C47.4 6.5 59.7 14.4 75.4 22.0C82.2 25.3 89.6 29.3 91.9 30.8C97.7 34.7 102.5 37.0 105.1 37.0C108.2 37.0 111.8 40.7 111.4 43.5C111.2 45.3 112.5 47.1 117.5 51.4C127.7 60.2 129.0 58.7 120.6 48.0Z" fill="#14544e" fill-rule="evenodd"/></svg>