<svg xmlns="http://www.w3.org/2000/svg" viewBox="0 0 223.8 239.5" role="img" aria-label="one-line motion illustration"><path d="M18.0 237.8C16.3 237.1 12.8 236.2 10.1 235.8C0.8 234.4 0.0 233.2 1.5 223.5C2.9 215.0 2.5 215.4 12.3 214.2C17.5 213.6 25.6 211.5 35.2 208.2C63.6 198.2 63.4 198.5 87.8 154.7C95.5 141.0 104.2 125.5 107.2 120.3C116.3 104.6 124.5 87.5 128.0 76.8C131.2 67.4 132.2 61.8 136.4 30.2C137.4 22.8 137.4 22.8 137.0 33.7C135.9 64.3 129.0 85.5 108.3 121.7C103.6 130.0 94.3 146.6 87.5 158.7C65.2 198.7 64.1 199.7 34.4 210.1C25.1 213.4 17.2 215.5 12.5 216.0C3.6 216.9 1.6 219.1 10.2 218.5C13.4 218.2 17.5 217.7 19.3 217.2C22.8 216.3 23.8 217.7 20.4 218.7C19.3 219.1 15.4 219.7 11.7 220.1C4.5 220.8 2.6 222.5 2.5 228.3C2.5 231.9 4.4 233.2 10.7 234.1C13.6 234.5 17.0 235.4 18.2 236.0C23.3 238.8 80.8 236.6 91.7 233.2C101.5 230.2 104.2 227.7 122.3 205.0C148.0 172.7 151.5 170.0 186.6 155.4C204.9 147.7 216.1 139.6 219.1 131.7C222.1 123.8 220.6 116.9 211.0 93.7C202.7 73.6 199.3 51.8 201.3 30.5C202.6 17.3 205.7 2.5 207.7 0.7C208.5 0.0 208.6 0.4 208.1 2.2C204.6 15.2 203.4 23.4 202.8 36.3C201.9 59.5 204.5 73.3 214.6 98.2C222.5 117.7 223.8 127.3 219.7 134.8C215.7 142.2 200.1 152.0 178.7 160.6C154.8 170.1 147.9 175.5 128.3 200.2C99.0 237.0 100.1 236.4 61.5 238.2C33.8 239.5 21.7 239.4 18.0 237.8Z" fill="#14544e" fill-rule="evenodd"/></svg>